<svg width="753" height="781" viewBox="0 0 753 781" fill="none" xmlns="http://www.w3.org/2000/svg">
<g clip-path="url(#clip0_12_2)">
<path d="M349.379 4.54902C336.09 8.34584 325.649 17.5214 308.563 39.353C307.298 41.2514 292.743 44.099 276.923 45.0482C246.549 47.5794 235.791 52.9582 235.791 65.2978C235.791 74.7898 225.983 80.8014 207.315 82.6998C182.952 85.5474 174.41 92.8246 172.511 112.125C170.929 128.578 163.652 135.539 147.199 135.539C142.77 135.539 135.809 137.753 132.012 140.601C126 144.714 125.051 148.195 125.051 165.597C125.051 183.631 124.102 187.112 115.559 196.92C109.548 203.565 103.536 216.221 100.056 228.877C96.8917 240.267 91.1965 252.923 88.0325 256.72C77.5913 268.11 77.2749 270.641 82.3373 282.981C89.2981 299.75 88.3489 308.293 77.5913 323.797C58.9237 350.691 58.9237 357.651 77.9077 377.901L87.0833 387.393L80.4389 403.213C76.6421 411.756 73.4781 423.146 73.7945 428.841C74.4273 443.712 85.1849 462.696 99.7393 474.403C111.13 483.579 112.395 486.11 112.395 499.399C112.395 521.863 117.458 532.937 134.227 544.644C142.453 550.655 154.476 563.944 161.437 575.018C171.562 590.838 176.308 595.268 186.116 598.115C195.292 600.963 199.722 604.76 204.151 613.619C213.01 630.388 229.463 639.88 247.182 637.665C260.787 636.4 261.42 636.716 275.341 653.169C292.427 672.786 303.817 676.899 322.801 668.989C339.254 662.028 344.316 662.661 353.176 672.153C360.769 680.696 377.222 689.239 385.765 689.239C388.296 689.239 396.206 684.176 403.483 678.165C417.405 666.458 433.858 663.294 442.084 670.887C461.701 688.922 481.634 686.075 495.556 663.61L503.149 650.954L524.032 653.169C550.293 655.7 562.949 650.005 569.91 632.287C574.339 621.529 576.554 619.947 587.944 618.049C599.018 616.15 605.03 611.721 625.28 591.787C669.259 546.859 694.255 499.715 705.962 439.599C715.137 391.19 708.176 341.831 687.294 306.395C673.056 281.715 639.834 249.443 617.053 238.369C599.018 229.509 595.854 228.877 560.101 228.877C524.348 228.877 520.868 229.509 503.149 238.052C482.267 248.493 457.271 272.223 448.096 289.942C439.236 307.977 434.174 333.289 436.705 349.109C437.654 357.019 439.869 363.347 441.451 363.347C444.299 363.347 450.943 343.73 450.943 335.82C450.943 325.695 468.029 296.27 479.103 286.778C515.805 255.454 576.238 258.935 611.991 294.371C640.783 322.531 650.275 346.894 650.275 391.506C650.275 435.802 639.518 466.177 608.827 507.941C584.78 540.214 545.547 566.792 498.403 581.979C471.826 590.838 463.916 592.104 430.377 592.104C356.656 592.42 302.868 569.956 248.131 515.535C194.976 462.38 171.878 413.021 171.246 350.691C170.929 292.157 190.546 237.419 224.717 203.248C257.623 170.026 232.627 173.507 465.498 172.241C650.275 171.608 671.79 170.975 680.966 166.229C692.989 159.901 707.227 146.296 707.227 141.234C707.227 138.703 657.236 138.07 520.235 139.652L333.242 141.867L324.067 131.742C318.688 126.363 315.208 120.668 315.524 119.086C316.157 117.504 397.472 115.605 506.313 114.973C610.725 114.34 700.899 113.707 706.594 113.707C716.086 113.391 716.719 112.758 716.719 102C716.719 77.9538 692.989 53.2746 669.576 53.2746C663.88 53.2746 653.439 56.4386 646.162 60.2354C633.506 66.5634 628.76 67.1962 560.101 66.8798C504.098 66.8798 483.216 65.6142 468.978 61.8174C446.83 55.8058 435.756 49.1614 431.959 39.353C427.213 26.3806 406.647 9.29499 389.878 4.23261C370.894 -1.46258 368.363 -1.46258 349.379 4.54902ZM394.94 38.4038C406.647 52.009 406.331 65.6142 393.675 80.1686C385.132 89.977 381.968 91.2426 368.996 91.2426C353.176 90.9262 347.797 88.0786 339.254 74.7898C332.293 64.0322 332.293 55.173 339.254 43.4662C351.594 22.9002 379.12 20.0526 394.94 38.4038ZM680.017 80.485C686.661 87.1294 686.345 90.2934 678.435 94.723C672.74 97.5706 670.525 97.2542 665.462 91.8754C659.767 86.1802 659.767 85.5474 664.513 80.485C670.841 74.157 673.689 74.157 680.017 80.485Z" fill="white"/>
<path d="M359.82 50.7433C351.277 59.2861 357.922 72.2585 370.894 72.2585C376.589 72.2585 384.499 64.3485 384.499 58.3369C384.499 57.3877 366.148 46.9465 363.933 46.9465C363.933 46.9465 362.035 48.5285 359.82 50.7433Z" fill="white"/>
<path d="M67.7828 186.795C40.256 226.029 18.108 279.184 5.76845 333.921C-1.19235 365.245 -2.14155 453.204 4.50285 483.579C41.838 660.763 194.343 780.678 382.917 780.995C458.853 780.995 540.801 755.999 604.397 713.601C632.873 694.617 680.65 643.993 700.583 612.353C720.2 580.397 738.867 538.632 747.094 507.309C753.738 482.313 755.004 411.756 749.308 398.151L745.828 390.241L744.246 398.151C743.297 402.58 740.766 418.717 738.867 434.537C730.008 500.981 698.684 567.425 651.857 619.314C639.518 632.919 602.182 663.61 582.882 675.95C536.371 705.375 467.396 726.257 408.229 729.105C271.861 735.749 155.426 669.938 80.4388 543.378C63.6696 515.535 51.6464 485.477 42.7872 450.357C33.6116 413.971 32.6624 334.554 40.5724 296.903C51.33 247.228 70.6304 189.327 82.6536 170.975C85.1848 167.179 86.4504 164.015 85.5012 164.015C84.8684 164.015 76.9584 174.456 67.7828 186.795Z" fill="white"/>
<path d="M238.955 233.939C232.627 237.419 224.717 245.013 220.92 250.392C204.468 274.122 192.444 335.503 197.507 366.511C203.518 401.631 205.1 406.693 216.807 431.373C234.842 469.341 284.2 520.281 321.219 538.949L332.293 544.327L320.903 532.304C306.665 516.484 300.97 505.094 300.97 491.489C300.97 477.567 307.93 465.227 318.688 459.532C331.977 452.571 341.152 454.153 356.023 465.227C363.617 470.923 371.843 477.251 374.691 479.465C381.335 484.528 388.929 479.782 386.398 472.188C385.448 468.708 380.386 463.329 375.007 459.849C369.945 456.368 365.515 452.255 365.515 450.673C365.515 448.458 382.284 450.04 391.776 453.521C393.991 454.47 397.472 453.837 400.003 452.255C408.546 446.876 398.421 436.751 379.753 432.955C355.074 427.892 353.808 421.881 376.273 417.135C383.234 415.869 386.081 413.338 386.081 409.225C386.081 398.783 357.605 392.772 330.078 397.518C318.055 399.733 303.817 403.529 298.755 406.377C285.466 413.021 265.533 431.373 257.623 444.345L250.978 455.419L243.068 444.978C225.35 421.248 216.807 394.67 216.807 363.663C216.807 329.808 221.237 316.836 237.69 300.699C249.713 289.309 253.51 287.411 265.216 287.411C279.454 287.411 285.15 291.524 296.856 310.191C303.501 320.949 314.891 322.215 314.891 312.406C314.891 308.926 312.044 301.649 308.247 296.27C298.755 283.297 302.552 282.032 316.157 293.739C328.18 304.496 333.875 304.18 333.875 292.157C333.875 284.563 319.954 270.325 308.563 266.845C305.083 265.895 302.235 263.364 302.235 261.782C302.235 256.403 310.778 255.138 323.118 258.618C329.762 260.517 335.774 261.466 336.406 260.517C340.203 256.72 331.66 246.279 317.106 237.419C301.919 228.244 298.122 227.295 275.341 227.295C255.724 227.295 247.498 228.877 238.955 233.939Z" fill="white"/>
</g>
<defs>
<clipPath id="clip0_12_2">
<rect width="753" height="781" fill="white"/>
</clipPath>
</defs>
</svg>
